<svg width="35" height="35" viewBox="0 0 35 35" fill="none" xmlns="http://www.w3.org/2000/svg">
<path d="M8 10H9.81132L13.7359 22.0755H21.283" stroke="black"/>
<path d="M10.717 12.4151H24L22.1887 18.4528H12.8302" stroke="black"/>
<path d="M14.7453 23.1495C14.7453 23.7069 14.2933 24.1589 13.7358 24.1589C13.1783 24.1589 12.7264 23.7069 12.7264 23.1495C12.7264 22.592 13.1783 22.14 13.7358 22.14C14.2933 22.14 14.7453 22.592 14.7453 23.1495Z" stroke="black"/>
<path d="M22.5943 23.1495C22.5943 23.7069 22.1424 24.1589 21.5849 24.1589C21.0274 24.1589 20.5755 23.7069 20.5755 23.1495C20.5755 22.592 21.0274 22.14 21.5849 22.14C22.1424 22.14 22.5943 22.592 22.5943 23.1495Z" stroke="black"/>
</svg>
